<svg id="svg" version="1.1" xmlns="http://www.w3.org/2000/svg" xmlns:xlink="http://www.w3.org/1999/xlink" width="400" height="304.6875" viewBox="0, 0, 400,304.6875"><g id="svgg"><path id="path0" d="M11.949 0.222 C 11.394 0.290,10.865 0.543,10.773 0.783 C 10.681 1.023,10.442 1.220,10.242 1.220 C 9.569 1.220,8.236 1.978,8.234 2.363 C 8.233 2.572,7.889 2.744,7.470 2.744 C 6.995 2.744,6.707 2.917,6.707 3.201 C 6.707 3.453,6.560 3.659,6.381 3.659 C 5.959 3.659,5.183 4.434,5.183 4.856 C 5.183 5.036,5.036 5.183,4.856 5.183 C 4.434 5.183,3.659 5.959,3.659 6.381 C 3.659 6.560,3.453 6.707,3.201 6.707 C 2.950 6.707,2.744 6.854,2.744 7.034 C 2.744 7.214,2.537 7.568,2.284 7.821 C 2.031 8.074,1.902 8.408,1.998 8.563 C 2.094 8.719,1.958 8.928,1.696 9.029 C 1.434 9.129,1.220 9.544,1.220 9.951 C 1.220 10.357,1.043 10.757,0.828 10.840 C 0.147 11.101,0.152 10.058,0.152 152.439 C 0.152 294.820,0.147 293.777,0.828 294.038 C 1.043 294.121,1.220 294.371,1.220 294.594 C 1.220 295.302,1.967 296.641,2.363 296.644 C 2.572 296.645,2.744 296.989,2.744 297.409 C 2.744 297.883,2.917 298.171,3.201 298.171 C 3.453 298.171,3.659 298.318,3.659 298.497 C 3.659 298.919,4.434 299.695,4.856 299.695 C 5.036 299.695,5.183 299.842,5.183 300.022 C 5.183 300.444,5.959 301.220,6.381 301.220 C 6.560 301.220,6.707 301.425,6.707 301.677 C 6.707 301.928,6.975 302.134,7.302 302.134 C 7.629 302.134,8.006 302.306,8.140 302.515 C 8.491 303.064,9.647 303.659,10.362 303.659 C 10.699 303.659,10.976 303.841,10.976 304.065 C 10.976 304.667,10.413 304.646,29.228 304.776 L 46.718 304.897 46.480 303.897 C 46.209 302.763,45.917 76.285,46.184 74.802 C 46.330 73.994,46.465 73.868,47.036 74.009 C 47.734 74.182,53.122 77.964,53.303 78.409 C 53.359 78.546,53.532 78.659,53.687 78.659 C 54.025 78.659,58.645 82.024,58.791 82.376 C 58.847 82.511,59.054 82.622,59.251 82.622 C 59.448 82.622,59.951 82.934,60.369 83.316 C 60.786 83.697,62.226 84.794,63.567 85.752 C 64.909 86.711,66.143 87.603,66.311 87.735 C 66.479 87.867,68.674 89.465,71.189 91.285 C 73.704 93.106,75.808 94.714,75.864 94.859 C 75.920 95.004,76.099 95.122,76.261 95.122 C 76.615 95.122,81.206 98.467,81.352 98.831 C 81.408 98.971,81.589 99.085,81.755 99.085 C 81.920 99.085,82.247 99.257,82.481 99.466 C 83.187 100.100,83.622 100.429,85.213 101.533 C 86.052 102.115,86.806 102.661,86.890 102.746 C 87.399 103.260,89.338 104.573,89.588 104.573 C 89.753 104.573,89.934 104.692,89.990 104.836 C 90.046 104.981,92.149 106.586,94.665 108.403 C 97.180 110.220,99.306 111.790,99.390 111.891 C 99.474 111.992,100.023 112.371,100.610 112.733 C 101.197 113.095,102.075 113.739,102.563 114.165 C 103.050 114.591,103.530 114.939,103.630 114.939 C 103.729 114.940,104.210 115.283,104.697 115.702 C 105.184 116.121,105.673 116.463,105.783 116.463 C 105.893 116.463,106.265 116.727,106.611 117.049 C 106.957 117.371,108.320 118.397,109.641 119.330 C 110.962 120.263,112.180 121.138,112.348 121.276 C 112.515 121.413,114.230 122.669,116.159 124.066 C 118.087 125.464,119.710 126.726,119.766 126.871 C 119.822 127.016,119.995 127.134,120.150 127.134 C 120.488 127.134,125.108 130.500,125.254 130.852 C 125.310 130.987,125.517 131.098,125.714 131.098 C 125.912 131.098,126.425 131.423,126.854 131.821 C 127.283 132.220,128.174 132.907,128.833 133.348 C 129.898 134.062,131.936 135.540,132.774 136.208 C 132.942 136.341,135.137 137.940,137.652 139.761 C 140.168 141.582,142.271 143.190,142.327 143.335 C 142.383 143.479,142.562 143.598,142.725 143.598 C 143.079 143.598,147.669 146.943,147.815 147.307 C 147.871 147.447,148.052 147.561,148.218 147.561 C 148.384 147.561,148.710 147.732,148.944 147.942 C 149.953 148.847,150.298 149.085,150.597 149.085 C 150.772 149.085,150.916 149.188,150.917 149.314 C 150.918 149.440,151.432 149.884,152.060 150.302 C 152.688 150.720,153.270 151.137,153.354 151.230 C 153.438 151.322,156.250 153.373,159.604 155.787 C 162.957 158.202,165.770 160.261,165.854 160.364 C 165.938 160.466,166.486 160.847,167.073 161.208 C 167.660 161.570,168.539 162.215,169.026 162.641 C 169.513 163.066,169.993 163.415,170.093 163.415 C 170.193 163.415,170.673 163.758,171.160 164.177 C 171.647 164.596,172.136 164.939,172.246 164.939 C 172.356 164.939,172.738 165.211,173.095 165.544 C 173.452 165.876,174.286 166.528,174.949 166.992 C 177.636 168.873,187.895 176.353,188.219 176.667 C 188.411 176.853,189.047 177.303,189.634 177.667 C 190.221 178.032,191.100 178.678,191.587 179.104 C 192.074 179.530,192.563 179.878,192.673 179.878 C 192.783 179.878,193.150 180.136,193.488 180.451 C 193.826 180.766,194.641 181.384,195.298 181.825 C 196.516 182.641,198.635 184.190,199.301 184.751 C 199.939 185.288,202.235 184.051,204.214 182.104 C 204.435 181.886,204.718 181.707,204.842 181.707 C 204.966 181.707,205.345 181.449,205.683 181.134 C 206.021 180.819,206.836 180.201,207.493 179.760 C 208.629 178.999,210.767 177.443,211.441 176.886 C 211.613 176.744,212.162 176.368,212.660 176.050 C 213.159 175.732,213.636 175.386,213.720 175.283 C 213.803 175.179,216.684 173.062,220.122 170.579 C 223.559 168.096,226.441 165.972,226.524 165.860 C 226.608 165.747,227.123 165.396,227.668 165.079 C 228.213 164.762,228.659 164.395,228.659 164.264 C 228.659 164.132,228.802 164.024,228.976 164.024 C 229.313 164.024,229.397 163.966,231.138 162.511 C 231.747 162.002,232.340 161.585,232.455 161.585 C 232.571 161.585,232.857 161.414,233.090 161.204 C 234.087 160.310,234.442 160.061,234.718 160.061 C 234.879 160.061,235.056 159.941,235.112 159.795 C 235.168 159.648,238.506 157.150,242.530 154.243 C 246.555 151.337,250.014 148.816,250.218 148.641 C 251.292 147.720,251.523 147.561,251.791 147.561 C 251.952 147.561,252.129 147.450,252.185 147.315 C 252.241 147.179,252.973 146.602,253.811 146.032 C 254.649 145.462,255.677 144.681,256.094 144.297 C 256.512 143.912,257.015 143.598,257.212 143.598 C 257.410 143.598,257.617 143.479,257.673 143.333 C 257.729 143.188,261.067 140.690,265.091 137.783 C 269.116 134.875,272.674 132.250,273.000 131.949 C 273.325 131.649,273.681 131.402,273.791 131.402 C 273.902 131.402,274.322 131.112,274.725 130.757 C 275.128 130.401,275.995 129.768,276.653 129.348 C 277.310 128.928,278.125 128.327,278.463 128.012 C 278.802 127.697,279.180 127.439,279.304 127.439 C 279.428 127.439,279.711 127.258,279.932 127.037 C 280.154 126.816,283.628 124.249,287.652 121.332 C 291.677 118.416,295.235 115.784,295.561 115.484 C 295.886 115.184,296.242 114.939,296.352 114.939 C 296.462 114.939,296.950 114.591,297.437 114.165 C 297.925 113.739,298.803 113.095,299.390 112.733 C 299.977 112.371,300.526 111.998,300.610 111.905 C 301.024 111.442,303.045 110.061,303.308 110.061 C 303.473 110.061,303.653 109.934,303.709 109.779 C 303.765 109.624,306.898 107.276,310.671 104.561 C 314.444 101.847,317.576 99.504,317.632 99.356 C 317.688 99.207,317.917 99.085,318.140 99.085 C 318.364 99.085,318.592 98.975,318.648 98.840 C 318.764 98.561,323.379 95.122,323.638 95.122 C 323.731 95.122,324.177 94.779,324.629 94.360 C 325.081 93.941,325.613 93.598,325.810 93.598 C 326.007 93.598,326.214 93.477,326.270 93.330 C 326.326 93.183,329.184 91.031,332.622 88.548 C 336.059 86.065,339.053 83.853,339.275 83.632 C 339.496 83.412,339.779 83.232,339.903 83.232 C 340.027 83.232,340.395 82.986,340.720 82.686 C 341.759 81.727,346.020 78.659,346.313 78.659 C 346.468 78.659,346.641 78.546,346.697 78.409 C 346.880 77.959,352.270 74.181,352.978 74.006 L 353.669 73.835 353.588 189.370 L 353.506 304.905 371.138 304.816 C 387.517 304.732,388.797 304.688,389.159 304.192 C 389.373 303.899,389.842 303.659,390.201 303.659 C 390.560 303.659,390.854 303.536,390.854 303.387 C 390.854 303.237,391.197 303.029,391.616 302.924 C 392.035 302.818,392.378 302.598,392.378 302.433 C 392.378 302.269,392.584 302.134,392.835 302.134 C 393.087 302.134,393.293 301.928,393.293 301.677 C 393.293 301.425,393.440 301.220,393.619 301.220 C 394.041 301.220,394.817 300.444,394.817 300.022 C 394.817 299.842,394.964 299.695,395.144 299.695 C 395.566 299.695,396.341 298.919,396.341 298.497 C 396.341 298.318,396.515 298.171,396.726 298.171 C 397.092 298.171,397.599 297.436,398.041 296.265 C 398.151 295.972,398.363 295.732,398.511 295.732 C 398.659 295.732,398.780 295.438,398.780 295.079 C 398.780 294.721,399.021 294.251,399.314 294.037 C 399.821 293.666,399.848 286.605,399.848 153.150 C 399.848 12.392,399.841 10.854,399.233 11.088 C 399.053 11.157,398.885 10.946,398.860 10.619 C 398.789 9.665,398.055 8.232,397.639 8.232 C 397.428 8.232,397.256 7.889,397.256 7.470 C 397.256 6.995,397.083 6.707,396.799 6.707 C 396.547 6.707,396.341 6.560,396.341 6.381 C 396.341 5.959,395.566 5.183,395.144 5.183 C 394.964 5.183,394.817 5.036,394.817 4.856 C 394.817 4.434,394.041 3.659,393.619 3.659 C 393.440 3.659,393.293 3.453,393.293 3.201 C 393.293 2.950,393.146 2.744,392.966 2.744 C 392.786 2.744,392.432 2.537,392.179 2.284 C 391.926 2.031,391.609 1.892,391.473 1.976 C 391.338 2.059,391.058 1.923,390.851 1.673 C 390.644 1.424,390.266 1.220,390.012 1.220 C 389.757 1.220,389.374 0.979,389.159 0.686 C 388.590 -0.093,369.817 -0.337,369.817 0.434 C 369.817 0.698,369.714 0.917,369.588 0.920 C 369.463 0.922,368.895 1.334,368.328 1.834 C 367.760 2.335,367.203 2.744,367.089 2.744 C 366.976 2.744,366.607 3.002,366.268 3.317 C 365.930 3.632,365.115 4.233,364.458 4.653 C 363.800 5.073,362.851 5.775,362.348 6.214 C 361.845 6.653,361.340 7.012,361.226 7.012 C 361.112 7.012,360.833 7.198,360.605 7.426 C 360.378 7.654,356.904 10.217,352.885 13.123 C 348.867 16.028,345.398 18.586,345.176 18.806 C 344.955 19.027,344.679 19.207,344.563 19.207 C 344.448 19.207,343.806 19.685,343.137 20.269 C 342.468 20.852,341.784 21.335,341.616 21.341 C 341.448 21.348,340.764 21.831,340.095 22.414 C 339.426 22.998,338.784 23.476,338.668 23.476 C 338.553 23.476,338.277 23.657,338.055 23.878 C 337.834 24.100,334.154 26.803,329.878 29.885 C 325.602 32.967,321.922 35.667,321.701 35.884 C 321.479 36.102,321.203 36.280,321.088 36.280 C 320.972 36.280,320.330 36.759,319.661 37.344 C 318.992 37.928,318.205 38.486,317.912 38.584 C 317.618 38.681,317.378 38.889,317.378 39.045 C 317.378 39.201,317.235 39.329,317.060 39.329 C 316.885 39.329,316.372 39.672,315.920 40.091 C 315.468 40.511,314.936 40.854,314.739 40.854 C 314.542 40.854,314.334 40.968,314.278 41.108 C 314.133 41.472,309.542 44.817,309.188 44.817 C 309.025 44.817,308.847 44.936,308.791 45.081 C 308.735 45.226,307.111 46.487,305.183 47.883 C 303.255 49.279,301.496 50.601,301.274 50.820 C 301.052 51.040,300.778 51.220,300.664 51.220 C 300.550 51.221,299.977 51.632,299.390 52.134 C 298.803 52.636,298.241 53.048,298.141 53.048 C 298.041 53.048,297.629 53.339,297.227 53.695 C 296.824 54.050,295.955 54.684,295.296 55.105 C 294.637 55.525,293.747 56.195,293.317 56.593 C 292.888 56.991,292.375 57.317,292.178 57.317 C 291.981 57.317,291.773 57.436,291.717 57.581 C 291.662 57.726,290.038 58.987,288.110 60.385 C 286.181 61.782,284.466 63.038,284.299 63.175 C 284.131 63.313,282.902 64.197,281.567 65.140 C 280.232 66.082,278.953 67.040,278.725 67.268 C 278.497 67.496,278.216 67.683,278.100 67.683 C 277.984 67.683,277.342 68.160,276.673 68.744 C 276.005 69.328,275.286 69.808,275.076 69.811 C 274.867 69.814,274.695 69.920,274.695 70.046 C 274.694 70.171,273.974 70.755,273.094 71.341 C 272.214 71.928,271.425 72.486,271.341 72.580 C 271.258 72.674,267.691 75.275,263.415 78.359 C 259.139 81.444,255.459 84.145,255.237 84.362 C 255.016 84.579,254.740 84.756,254.624 84.756 C 254.509 84.756,253.867 85.234,253.198 85.817 C 252.529 86.401,251.889 86.881,251.775 86.884 C 251.661 86.888,251.387 87.062,251.165 87.271 C 250.347 88.045,248.507 89.329,248.216 89.329 C 248.052 89.329,247.871 89.448,247.815 89.592 C 247.759 89.737,245.655 91.345,243.140 93.166 C 240.625 94.987,238.430 96.584,238.262 96.716 C 238.095 96.848,236.860 97.740,235.518 98.697 C 234.177 99.655,232.898 100.615,232.676 100.829 C 232.455 101.044,232.179 101.220,232.063 101.220 C 231.948 101.220,231.306 101.698,230.637 102.283 C 229.968 102.867,229.181 103.425,228.887 103.523 C 228.594 103.620,228.354 103.828,228.354 103.984 C 228.354 104.140,228.210 104.268,228.035 104.268 C 227.860 104.268,227.347 104.611,226.895 105.030 C 226.443 105.450,225.912 105.793,225.714 105.793 C 225.517 105.793,225.310 105.909,225.254 106.051 C 225.198 106.193,222.340 108.346,218.902 110.835 C 215.465 113.324,212.471 115.540,212.250 115.760 C 212.028 115.979,211.754 116.159,211.640 116.159 C 211.526 116.160,210.953 116.571,210.366 117.073 C 209.779 117.575,209.217 117.987,209.118 117.987 C 209.018 117.987,208.538 118.336,208.050 118.762 C 207.563 119.188,206.684 119.832,206.098 120.194 C 205.511 120.556,204.962 120.940,204.878 121.047 C 204.491 121.541,200.330 124.390,199.995 124.390 C 199.648 124.390,195.809 121.709,194.872 120.812 C 194.650 120.600,194.367 120.427,194.243 120.427 C 194.119 120.427,193.736 120.165,193.393 119.845 C 193.049 119.525,188.736 116.349,183.808 112.787 C 178.880 109.226,174.779 106.226,174.695 106.121 C 174.611 106.017,174.156 105.685,173.684 105.384 C 173.212 105.084,172.595 104.646,172.312 104.411 C 172.030 104.176,171.354 103.671,170.810 103.288 C 167.510 100.963,158.180 94.112,157.807 93.739 C 157.561 93.493,157.272 93.293,157.164 93.293 C 156.900 93.293,152.314 89.856,152.185 89.561 C 152.129 89.434,151.922 89.329,151.725 89.329 C 151.527 89.329,150.996 88.986,150.544 88.567 C 150.092 88.148,149.579 87.805,149.404 87.805 C 149.229 87.805,149.084 87.702,149.083 87.576 C 149.082 87.450,148.568 87.006,147.940 86.588 C 147.312 86.170,146.730 85.752,146.646 85.657 C 146.563 85.563,142.821 82.839,138.331 79.604 C 133.841 76.369,129.975 73.529,129.740 73.294 C 129.504 73.058,129.165 72.866,128.985 72.866 C 128.806 72.866,128.659 72.738,128.659 72.582 C 128.659 72.425,128.408 72.218,128.103 72.121 C 127.797 72.024,127.253 71.671,126.894 71.336 C 126.535 71.001,125.790 70.419,125.239 70.042 C 124.688 69.665,123.209 68.594,121.951 67.661 C 120.694 66.729,117.135 64.141,114.042 61.910 C 110.950 59.679,108.231 57.665,107.999 57.433 C 107.768 57.202,107.477 57.012,107.353 57.012 C 107.229 57.012,106.850 56.754,106.512 56.439 C 106.174 56.124,105.359 55.506,104.702 55.065 C 103.638 54.353,101.600 52.874,100.762 52.207 C 100.595 52.073,98.399 50.474,95.884 48.654 C 93.369 46.833,91.265 45.225,91.209 45.080 C 91.153 44.935,90.975 44.817,90.812 44.817 C 90.458 44.817,85.867 41.472,85.722 41.108 C 85.666 40.968,85.458 40.854,85.261 40.854 C 85.064 40.854,84.558 40.535,84.138 40.145 C 83.718 39.755,82.965 39.173,82.464 38.852 C 81.448 38.198,81.322 38.105,80.030 37.037 C 79.527 36.621,79.023 36.281,78.909 36.281 C 78.795 36.281,78.521 36.103,78.299 35.886 C 78.078 35.670,74.604 33.114,70.579 30.208 C 66.555 27.301,63.216 24.803,63.161 24.657 C 63.105 24.510,62.923 24.390,62.758 24.390 C 62.592 24.390,62.265 24.219,62.031 24.009 C 61.023 23.104,60.678 22.866,60.379 22.866 C 60.204 22.866,60.060 22.763,60.059 22.637 C 60.058 22.511,59.545 22.066,58.920 21.646 C 58.295 21.227,57.575 20.718,57.321 20.514 C 57.067 20.311,53.498 17.722,49.390 14.761 C 45.282 11.801,41.875 9.257,41.819 9.110 C 41.763 8.962,41.557 8.839,41.362 8.837 C 41.166 8.834,40.542 8.422,39.974 7.922 C 39.406 7.422,38.857 7.012,38.754 7.012 C 38.651 7.012,38.155 6.653,37.652 6.214 C 37.149 5.775,36.192 5.068,35.525 4.642 C 34.858 4.217,34.158 3.718,33.970 3.535 C 33.781 3.351,32.855 2.652,31.911 1.982 C 30.968 1.311,30.193 0.591,30.190 0.381 C 30.183 0.013,14.736 -0.122,11.949 0.222 " stroke="none" fill="#eb3e32" fill-rule="evenodd"></path><path id="path1" d="M30.806 0.229 C 30.813 0.354,33.222 2.172,36.159 4.268 C 39.096 6.364,41.759 8.319,42.078 8.613 C 42.397 8.906,42.737 9.146,42.834 9.146 C 42.987 9.146,46.125 11.448,47.617 12.654 C 47.899 12.883,48.517 13.315,48.989 13.616 C 49.461 13.917,49.916 14.243,50.000 14.341 C 50.084 14.439,53.651 17.040,57.927 20.122 C 62.203 23.204,65.770 25.816,65.854 25.927 C 65.938 26.037,66.295 26.280,66.648 26.466 C 67.186 26.749,68.305 27.599,70.338 29.270 C 70.540 29.437,70.786 29.573,70.884 29.573 C 70.982 29.573,71.228 29.712,71.431 29.881 C 72.626 30.879,75.618 33.088,81.555 37.352 C 85.244 40.001,88.331 42.258,88.415 42.366 C 88.498 42.474,89.047 42.859,89.634 43.221 C 90.221 43.582,91.100 44.227,91.587 44.653 C 92.074 45.078,92.554 45.427,92.654 45.428 C 92.754 45.428,93.316 45.839,93.902 46.341 C 94.489 46.844,95.063 47.255,95.176 47.255 C 95.290 47.256,95.565 47.436,95.786 47.657 C 96.008 47.877,99.002 50.089,102.439 52.572 C 105.877 55.055,108.735 57.207,108.791 57.355 C 108.847 57.502,109.054 57.622,109.251 57.622 C 109.448 57.622,109.961 57.948,110.391 58.346 C 110.820 58.744,111.710 59.414,112.369 59.835 C 113.028 60.255,113.979 60.958,114.482 61.397 C 114.985 61.836,115.478 62.195,115.578 62.195 C 115.677 62.195,116.157 62.538,116.645 62.957 C 117.132 63.376,117.624 63.719,117.737 63.719 C 117.851 63.719,118.126 63.900,118.347 64.120 C 118.569 64.341,121.563 66.553,125.000 69.036 C 128.438 71.519,131.296 73.671,131.352 73.818 C 131.408 73.965,131.588 74.085,131.753 74.085 C 132.056 74.085,133.416 75.032,135.366 76.601 C 136.912 77.846,136.971 77.889,137.965 78.523 C 138.464 78.842,138.941 79.181,139.024 79.277 C 139.108 79.373,139.863 79.925,140.701 80.504 C 141.540 81.082,142.294 81.631,142.378 81.724 C 142.462 81.817,145.274 83.863,148.628 86.270 C 151.982 88.677,154.794 90.734,154.878 90.842 C 154.962 90.950,155.511 91.334,156.098 91.696 C 156.684 92.058,157.563 92.703,158.050 93.128 C 158.538 93.554,159.026 93.902,159.136 93.902 C 159.246 93.902,159.602 94.148,159.927 94.447 C 160.252 94.747,163.811 97.371,167.835 100.278 C 171.860 103.186,175.198 105.685,175.254 105.831 C 175.310 105.978,175.517 106.098,175.714 106.098 C 175.912 106.098,176.425 106.423,176.854 106.821 C 177.283 107.220,178.174 107.890,178.833 108.310 C 179.491 108.731,180.442 109.434,180.945 109.873 C 181.448 110.311,181.953 110.670,182.067 110.670 C 182.180 110.671,182.455 110.846,182.676 111.061 C 182.898 111.276,184.177 112.235,185.518 113.193 C 186.860 114.151,188.095 115.042,188.262 115.174 C 188.430 115.306,190.625 116.904,193.140 118.724 C 195.655 120.545,197.759 122.153,197.815 122.298 C 197.871 122.443,198.066 122.561,198.248 122.561 C 198.431 122.561,198.825 122.783,199.125 123.054 C 199.763 123.632,200.793 123.461,201.686 122.629 C 202.743 121.645,206.967 118.598,207.275 118.598 C 207.438 118.598,207.617 118.477,207.673 118.330 C 207.729 118.183,210.587 116.031,214.024 113.548 C 217.462 111.065,220.456 108.853,220.677 108.632 C 220.899 108.412,221.175 108.232,221.290 108.232 C 221.406 108.232,222.048 107.754,222.717 107.170 C 223.386 106.587,224.093 106.107,224.289 106.103 C 224.484 106.100,224.690 105.980,224.746 105.836 C 224.802 105.692,228.895 102.647,233.841 99.069 C 238.788 95.491,243.101 92.316,243.426 92.013 C 243.751 91.711,244.119 91.463,244.243 91.463 C 244.367 91.463,244.650 91.286,244.872 91.068 C 245.093 90.851,250.008 87.256,255.793 83.079 C 261.578 78.903,266.478 75.342,266.681 75.167 C 267.743 74.253,267.986 74.085,268.254 74.085 C 268.415 74.085,268.592 73.971,268.648 73.831 C 268.794 73.467,273.385 70.122,273.739 70.122 C 273.901 70.122,274.080 70.002,274.136 69.855 C 274.192 69.709,277.530 67.210,281.555 64.303 C 285.579 61.395,289.138 58.771,289.463 58.472 C 289.788 58.172,290.156 57.927,290.280 57.927 C 290.404 57.927,290.692 57.740,290.920 57.512 C 291.148 57.284,292.427 56.326,293.762 55.383 C 295.097 54.441,296.337 53.546,296.519 53.395 C 296.700 53.244,300.130 50.742,304.141 47.835 C 308.151 44.928,311.699 42.305,312.024 42.006 C 312.349 41.708,312.717 41.463,312.841 41.463 C 312.965 41.463,313.250 41.280,313.474 41.055 C 313.699 40.831,318.133 37.581,323.328 33.834 C 328.524 30.087,332.941 26.875,333.145 26.697 C 334.149 25.817,334.449 25.610,334.718 25.610 C 334.879 25.610,335.056 25.495,335.112 25.354 C 335.168 25.213,338.506 22.715,342.530 19.803 C 346.555 16.891,350.029 14.331,350.250 14.114 C 350.472 13.897,350.755 13.720,350.879 13.720 C 351.003 13.720,351.374 13.479,351.703 13.186 C 352.032 12.893,352.984 12.176,353.818 11.595 C 354.653 11.013,355.677 10.224,356.094 9.842 C 356.512 9.459,356.964 9.146,357.098 9.146 C 357.233 9.146,357.603 8.906,357.922 8.613 C 358.241 8.319,360.904 6.364,363.841 4.268 C 366.778 2.172,369.187 0.354,369.194 0.229 C 369.201 0.103,293.064 0.000,200.000 0.000 C 106.936 0.000,30.799 0.103,30.806 0.229 M46.951 189.787 L 46.951 304.878 200.000 304.878 L 353.049 304.878 353.049 189.957 C 353.049 126.750,352.937 74.967,352.801 74.883 C 352.665 74.799,352.163 75.065,351.687 75.475 C 351.210 75.884,350.737 76.220,350.635 76.220 C 350.534 76.220,349.903 76.697,349.234 77.281 C 348.566 77.864,347.847 78.345,347.637 78.348 C 347.428 78.351,347.256 78.457,347.256 78.582 C 347.255 78.708,346.535 79.291,345.655 79.878 C 344.775 80.465,343.986 81.028,343.902 81.129 C 343.819 81.230,340.460 83.689,336.439 86.594 C 332.418 89.498,328.860 92.125,328.531 92.431 C 328.203 92.737,327.832 92.988,327.708 92.988 C 327.584 92.988,327.296 93.174,327.068 93.402 C 326.840 93.630,325.561 94.588,324.226 95.531 C 322.891 96.474,321.662 97.356,321.494 97.491 C 321.326 97.625,317.929 100.094,313.944 102.976 C 309.959 105.858,306.402 108.493,306.039 108.830 C 305.677 109.168,305.130 109.524,304.824 109.621 C 304.518 109.718,304.268 109.925,304.268 110.082 C 304.268 110.238,304.074 110.366,303.836 110.366 C 303.599 110.366,303.359 110.480,303.303 110.620 C 303.157 110.984,298.566 114.329,298.212 114.329 C 298.050 114.329,297.871 114.450,297.815 114.597 C 297.759 114.744,294.901 116.896,291.463 119.379 C 288.026 121.862,285.032 124.074,284.811 124.294 C 284.589 124.515,284.313 124.695,284.197 124.695 C 284.082 124.695,283.440 125.173,282.771 125.756 C 282.102 126.340,281.395 126.820,281.199 126.823 C 281.004 126.827,280.798 126.950,280.742 127.097 C 280.686 127.244,277.828 129.396,274.390 131.879 C 270.953 134.362,267.959 136.574,267.737 136.794 C 267.516 137.015,267.233 137.195,267.109 137.195 C 266.985 137.195,266.617 137.435,266.292 137.729 C 265.967 138.022,265.152 138.623,264.482 139.064 C 263.811 139.505,262.851 140.225,262.348 140.664 C 261.845 141.103,261.351 141.463,261.251 141.463 C 261.151 141.463,260.769 141.723,260.403 142.041 C 259.848 142.522,247.482 151.541,244.136 153.905 C 243.589 154.292,242.816 154.841,242.420 155.125 C 241.290 155.934,238.301 158.182,237.894 158.528 C 237.691 158.700,237.394 158.841,237.233 158.841 C 237.073 158.841,236.895 158.961,236.839 159.108 C 236.784 159.254,233.445 161.752,229.421 164.659 C 225.396 167.565,221.922 170.121,221.701 170.338 C 221.479 170.554,221.205 170.732,221.091 170.732 C 220.977 170.732,220.473 171.091,219.970 171.530 C 219.466 171.968,218.516 172.671,217.857 173.092 C 217.198 173.513,216.308 174.183,215.878 174.581 C 215.449 174.979,214.936 175.305,214.739 175.305 C 214.542 175.305,214.334 175.419,214.278 175.559 C 214.133 175.923,209.542 179.268,209.188 179.268 C 209.025 179.268,208.847 179.386,208.791 179.530 C 208.579 180.075,200.567 185.671,199.998 185.671 C 199.440 185.671,191.431 180.064,191.209 179.519 C 191.153 179.381,190.981 179.268,190.825 179.268 C 190.532 179.268,186.271 176.200,185.232 175.241 C 184.907 174.941,184.540 174.695,184.416 174.695 C 184.291 174.695,184.009 174.518,183.787 174.301 C 183.565 174.084,180.091 171.529,176.067 168.622 C 172.043 165.716,168.704 163.218,168.648 163.071 C 168.592 162.925,168.411 162.805,168.245 162.805 C 167.984 162.805,163.537 159.631,163.110 159.141 C 163.026 159.045,158.979 156.100,154.116 152.597 C 149.253 149.094,145.206 146.144,145.122 146.040 C 145.038 145.937,144.489 145.556,143.902 145.194 C 143.316 144.832,142.437 144.188,141.950 143.762 C 141.462 143.336,140.974 142.988,140.864 142.988 C 140.754 142.988,140.398 142.744,140.073 142.445 C 139.748 142.146,136.190 139.516,132.166 136.599 C 128.143 133.683,124.669 131.115,124.446 130.892 C 124.224 130.670,123.940 130.488,123.816 130.488 C 123.692 130.488,123.325 130.243,123.000 129.945 C 122.674 129.646,121.928 129.102,121.341 128.737 C 120.755 128.372,119.876 127.724,119.389 127.299 C 118.901 126.873,118.421 126.524,118.321 126.524 C 118.222 126.523,117.660 126.112,117.073 125.610 C 116.486 125.107,115.913 124.696,115.799 124.696 C 115.685 124.695,115.411 124.515,115.189 124.294 C 114.968 124.074,111.974 121.862,108.537 119.379 C 105.099 116.896,102.241 114.744,102.185 114.597 C 102.129 114.450,101.922 114.329,101.725 114.329 C 101.527 114.329,100.996 113.986,100.544 113.567 C 100.092 113.148,99.579 112.805,99.404 112.805 C 99.229 112.805,99.085 112.677,99.085 112.521 C 99.085 112.364,98.845 112.157,98.552 112.059 C 98.258 111.962,97.471 111.404,96.802 110.819 C 96.133 110.234,95.491 109.756,95.376 109.756 C 95.260 109.756,94.984 109.579,94.763 109.362 C 94.541 109.145,90.861 106.441,86.585 103.354 C 82.309 100.266,78.630 97.562,78.408 97.346 C 78.187 97.129,77.904 96.951,77.780 96.951 C 77.656 96.951,77.285 96.711,76.956 96.418 C 76.627 96.124,75.675 95.408,74.840 94.826 C 74.006 94.244,73.057 93.524,72.732 93.226 C 72.407 92.927,72.040 92.683,71.916 92.683 C 71.791 92.683,71.508 92.501,71.286 92.279 C 71.065 92.058,68.825 90.392,66.310 88.578 C 59.723 83.827,56.308 81.312,55.847 80.872 C 55.626 80.661,55.351 80.488,55.237 80.487 C 55.124 80.487,54.619 80.128,54.116 79.690 C 53.613 79.251,52.652 78.545,51.982 78.120 C 51.311 77.695,50.694 77.261,50.610 77.155 C 50.355 76.832,47.340 74.695,47.139 74.695 C 47.036 74.695,46.951 126.486,46.951 189.787 " stroke="none" fill="#f4f3f3" fill-rule="evenodd"></path><path id="path2" d="" stroke="none" fill="#f48c84" fill-rule="evenodd"></path><path id="path3" d="M30.492 0.177 C 30.490 0.358,31.139 0.968,31.936 1.533 C 32.732 2.098,33.453 2.643,33.537 2.745 C 33.620 2.847,38.628 6.507,44.665 10.877 C 54.883 18.275,57.106 19.895,63.567 24.654 C 66.214 26.604,76.671 34.224,78.058 35.213 C 81.868 37.932,99.880 51.071,100.000 51.219 C 100.084 51.323,104.405 54.479,109.604 58.232 C 114.802 61.986,120.838 66.382,123.018 68.002 C 125.198 69.623,130.549 73.524,134.909 76.673 C 139.268 79.822,143.201 82.689,143.649 83.044 C 144.589 83.790,145.262 84.280,157.317 93.004 C 162.264 96.584,166.492 99.691,166.714 99.909 C 166.935 100.127,167.218 100.305,167.342 100.305 C 167.466 100.305,167.838 100.556,168.168 100.864 C 168.625 101.289,184.984 113.252,190.544 117.226 C 191.014 117.561,193.213 119.173,195.431 120.808 C 197.650 122.443,199.703 123.780,199.995 123.780 C 200.410 123.780,210.334 116.906,210.976 116.174 C 211.059 116.079,211.677 115.621,212.348 115.158 C 213.018 114.694,214.068 113.941,214.681 113.484 C 215.293 113.026,218.998 110.327,222.913 107.484 C 226.827 104.642,231.605 101.144,233.529 99.710 C 235.453 98.277,237.333 96.898,237.706 96.646 C 238.785 95.920,260.467 80.122,261.890 79.025 C 262.309 78.702,265.945 76.061,269.970 73.155 C 273.994 70.250,277.355 67.793,277.439 67.696 C 277.523 67.599,277.888 67.317,278.250 67.068 C 278.781 66.703,297.715 52.926,301.705 50.000 C 306.342 46.601,323.360 34.203,323.887 33.841 C 324.253 33.590,325.579 32.615,326.834 31.674 C 328.974 30.070,342.635 20.085,344.516 18.750 C 355.941 10.640,369.318 0.689,369.459 0.195 C 369.527 -0.041,369.478 -0.050,369.307 0.169 C 369.168 0.346,366.517 2.323,363.415 4.562 C 360.313 6.801,357.729 8.748,357.673 8.889 C 357.617 9.031,357.410 9.146,357.212 9.146 C 357.015 9.146,356.512 9.459,356.094 9.842 C 355.677 10.224,354.653 11.013,353.818 11.595 C 352.984 12.176,352.032 12.893,351.703 13.186 C 351.374 13.479,351.003 13.720,350.879 13.720 C 350.755 13.720,350.472 13.897,350.250 14.114 C 350.029 14.331,346.555 16.891,342.530 19.803 C 338.506 22.715,335.168 25.213,335.112 25.354 C 335.056 25.495,334.875 25.610,334.709 25.610 C 334.543 25.610,334.216 25.781,333.983 25.991 C 333.138 26.749,332.622 27.128,323.323 33.837 C 318.130 37.583,313.699 40.831,313.474 41.055 C 313.250 41.280,312.965 41.463,312.841 41.463 C 312.717 41.463,312.349 41.708,312.024 42.006 C 311.699 42.305,308.151 44.928,304.141 47.835 C 300.130 50.742,296.700 53.244,296.519 53.395 C 296.337 53.546,295.097 54.441,293.762 55.383 C 292.427 56.326,291.148 57.284,290.920 57.512 C 290.692 57.740,290.404 57.927,290.280 57.927 C 290.156 57.927,289.788 58.172,289.463 58.472 C 289.138 58.771,285.579 61.395,281.555 64.303 C 277.530 67.210,274.192 69.709,274.136 69.855 C 274.080 70.002,273.901 70.122,273.739 70.122 C 273.385 70.122,268.794 73.467,268.648 73.831 C 268.592 73.971,268.411 74.085,268.245 74.085 C 268.080 74.085,267.753 74.257,267.519 74.466 C 266.730 75.174,266.329 75.469,255.793 83.077 C 250.008 87.255,245.093 90.851,244.872 91.068 C 244.650 91.286,244.367 91.463,244.243 91.463 C 244.119 91.463,243.751 91.711,243.426 92.013 C 243.101 92.316,238.788 95.491,233.841 99.069 C 228.895 102.647,224.802 105.692,224.746 105.836 C 224.690 105.980,224.484 106.100,224.289 106.103 C 224.093 106.107,223.386 106.587,222.717 107.170 C 222.048 107.754,221.406 108.232,221.290 108.232 C 221.175 108.232,220.899 108.412,220.677 108.632 C 220.456 108.853,217.462 111.065,214.024 113.548 C 210.587 116.031,207.729 118.183,207.673 118.330 C 207.617 118.477,207.438 118.598,207.275 118.598 C 206.967 118.598,202.743 121.645,201.686 122.629 C 200.793 123.461,199.763 123.632,199.125 123.054 C 198.825 122.783,198.431 122.561,198.248 122.561 C 198.066 122.561,197.871 122.443,197.815 122.298 C 197.759 122.153,195.655 120.545,193.140 118.724 C 190.625 116.904,188.430 115.306,188.262 115.174 C 188.095 115.042,186.860 114.151,185.518 113.193 C 184.177 112.235,182.898 111.276,182.676 111.061 C 182.455 110.846,182.180 110.671,182.067 110.670 C 181.953 110.670,181.448 110.311,180.945 109.873 C 180.442 109.434,179.491 108.731,178.833 108.310 C 178.174 107.890,177.283 107.220,176.854 106.821 C 176.425 106.423,175.912 106.098,175.714 106.098 C 175.517 106.098,175.310 105.978,175.254 105.831 C 175.198 105.685,171.860 103.186,167.835 100.278 C 163.811 97.371,160.252 94.747,159.927 94.447 C 159.602 94.148,159.246 93.902,159.136 93.902 C 159.026 93.902,158.538 93.554,158.050 93.128 C 157.563 92.703,156.684 92.058,156.098 91.696 C 155.511 91.334,154.962 90.950,154.878 90.842 C 154.794 90.734,151.982 88.677,148.628 86.270 C 145.274 83.863,142.462 81.817,142.378 81.724 C 142.294 81.631,141.540 81.082,140.701 80.504 C 139.863 79.925,139.108 79.373,139.024 79.277 C 138.941 79.181,138.464 78.842,137.965 78.523 C 136.971 77.889,136.912 77.846,135.366 76.601 C 133.416 75.032,132.056 74.085,131.753 74.085 C 131.588 74.085,131.408 73.965,131.352 73.818 C 131.296 73.671,128.438 71.519,125.000 69.036 C 121.563 66.553,118.569 64.341,118.347 64.120 C 118.126 63.900,117.851 63.719,117.737 63.719 C 117.624 63.719,117.132 63.376,116.645 62.957 C 116.157 62.538,115.677 62.195,115.578 62.195 C 115.478 62.195,114.985 61.836,114.482 61.397 C 113.979 60.958,113.028 60.255,112.369 59.835 C 111.710 59.414,110.820 58.744,110.391 58.346 C 109.961 57.948,109.448 57.622,109.251 57.622 C 109.054 57.622,108.847 57.502,108.791 57.355 C 108.735 57.207,105.877 55.055,102.439 52.572 C 99.002 50.089,96.008 47.877,95.786 47.657 C 95.565 47.436,95.290 47.256,95.176 47.255 C 95.063 47.255,94.489 46.844,93.902 46.341 C 93.316 45.839,92.754 45.428,92.654 45.428 C 92.554 45.427,92.074 45.078,91.587 44.653 C 91.100 44.227,90.221 43.582,89.634 43.221 C 89.047 42.859,88.498 42.474,88.415 42.366 C 88.331 42.258,85.244 40.001,81.555 37.352 C 75.618 33.088,72.626 30.879,71.431 29.881 C 71.228 29.712,70.982 29.573,70.884 29.573 C 70.786 29.573,70.540 29.437,70.338 29.270 C 68.305 27.599,67.186 26.749,66.648 26.466 C 66.295 26.280,65.938 26.037,65.854 25.927 C 65.770 25.816,62.203 23.204,57.927 20.122 C 53.651 17.040,50.084 14.439,50.000 14.341 C 49.916 14.243,49.461 13.917,48.989 13.616 C 48.517 13.315,47.899 12.883,47.617 12.654 C 45.728 11.127,42.963 9.146,42.719 9.146 C 42.560 9.146,42.383 9.031,42.327 8.889 C 42.271 8.748,39.688 6.801,36.585 4.562 C 33.483 2.323,30.844 0.346,30.721 0.169 C 30.565 -0.054,30.496 -0.052,30.492 0.177 M46.787 74.771 C 46.708 74.981,46.678 126.875,46.721 190.091 L 46.800 305.030 46.875 189.863 C 46.917 126.521,47.036 74.695,47.139 74.695 C 47.340 74.695,50.355 76.832,50.610 77.155 C 50.694 77.261,51.311 77.695,51.982 78.120 C 52.652 78.545,53.613 79.251,54.116 79.690 C 54.619 80.128,55.124 80.487,55.237 80.487 C 55.351 80.488,55.626 80.661,55.847 80.872 C 56.308 81.312,59.723 83.827,66.310 88.578 C 68.825 90.392,71.065 92.058,71.286 92.279 C 71.508 92.501,71.791 92.683,71.916 92.683 C 72.040 92.683,72.407 92.927,72.732 93.226 C 73.057 93.524,74.006 94.244,74.840 94.826 C 75.675 95.408,76.627 96.124,76.956 96.418 C 77.285 96.711,77.656 96.951,77.780 96.951 C 77.904 96.951,78.187 97.129,78.408 97.346 C 78.630 97.562,82.309 100.266,86.585 103.354 C 90.861 106.441,94.541 109.145,94.763 109.362 C 94.984 109.579,95.260 109.756,95.376 109.756 C 95.491 109.756,96.133 110.234,96.802 110.819 C 97.471 111.404,98.258 111.962,98.552 112.059 C 98.845 112.157,99.085 112.364,99.085 112.521 C 99.085 112.677,99.229 112.805,99.404 112.805 C 99.579 112.805,100.092 113.148,100.544 113.567 C 100.996 113.986,101.527 114.329,101.725 114.329 C 101.922 114.329,102.129 114.450,102.185 114.597 C 102.241 114.744,105.099 116.896,108.537 119.379 C 111.974 121.862,114.968 124.074,115.189 124.294 C 115.411 124.515,115.685 124.695,115.799 124.696 C 115.913 124.696,116.486 125.107,117.073 125.610 C 117.660 126.112,118.222 126.523,118.321 126.524 C 118.421 126.524,118.901 126.873,119.389 127.299 C 119.876 127.724,120.755 128.372,121.341 128.737 C 121.928 129.102,122.674 129.646,123.000 129.945 C 123.325 130.243,123.692 130.488,123.816 130.488 C 123.940 130.488,124.224 130.670,124.446 130.892 C 124.669 131.115,128.143 133.683,132.166 136.599 C 136.190 139.516,139.748 142.146,140.073 142.445 C 140.398 142.744,140.754 142.988,140.864 142.988 C 140.974 142.988,141.462 143.336,141.950 143.762 C 142.437 144.188,143.316 144.832,143.902 145.194 C 144.489 145.556,145.038 145.937,145.122 146.040 C 145.206 146.144,149.253 149.094,154.116 152.597 C 158.979 156.100,163.026 159.045,163.110 159.141 C 163.537 159.631,167.984 162.805,168.245 162.805 C 168.411 162.805,168.592 162.925,168.648 163.071 C 168.704 163.218,172.043 165.716,176.067 168.622 C 180.091 171.529,183.565 174.084,183.787 174.301 C 184.009 174.518,184.291 174.695,184.416 174.695 C 184.540 174.695,184.907 174.941,185.232 175.241 C 186.271 176.200,190.532 179.268,190.825 179.268 C 190.981 179.268,191.153 179.381,191.209 179.519 C 191.431 180.064,199.440 185.671,199.998 185.671 C 200.567 185.671,208.579 180.075,208.791 179.530 C 208.847 179.386,209.025 179.268,209.188 179.268 C 209.542 179.268,214.133 175.923,214.278 175.559 C 214.334 175.419,214.542 175.305,214.739 175.305 C 214.936 175.305,215.449 174.979,215.878 174.581 C 216.308 174.183,217.198 173.513,217.857 173.092 C 218.516 172.671,219.466 171.968,219.970 171.530 C 220.473 171.091,220.977 170.732,221.091 170.732 C 221.205 170.732,221.479 170.554,221.701 170.338 C 221.922 170.121,225.396 167.565,229.421 164.659 C 233.445 161.752,236.784 159.254,236.839 159.108 C 236.895 158.961,237.073 158.841,237.233 158.841 C 237.394 158.841,237.691 158.700,237.894 158.528 C 238.301 158.182,241.290 155.934,242.420 155.125 C 242.816 154.841,243.589 154.292,244.136 153.905 C 247.482 151.541,259.848 142.522,260.403 142.041 C 260.769 141.723,261.151 141.463,261.251 141.463 C 261.351 141.463,261.845 141.103,262.348 140.664 C 262.851 140.225,263.811 139.505,264.482 139.064 C 265.152 138.623,265.967 138.022,266.292 137.729 C 266.617 137.435,266.985 137.195,267.109 137.195 C 267.233 137.195,267.516 137.015,267.737 136.794 C 267.959 136.574,270.953 134.362,274.390 131.879 C 277.828 129.396,280.686 127.244,280.742 127.097 C 280.798 126.950,281.004 126.827,281.199 126.823 C 281.395 126.820,282.102 126.340,282.771 125.756 C 283.440 125.173,284.082 124.695,284.197 124.695 C 284.313 124.695,284.589 124.515,284.811 124.294 C 285.032 124.074,288.026 121.862,291.463 119.379 C 294.901 116.896,297.759 114.744,297.815 114.597 C 297.871 114.450,298.045 114.329,298.202 114.329 C 298.620 114.329,303.336 110.870,303.346 110.557 C 303.350 110.411,303.182 110.425,302.973 110.590 C 302.763 110.754,300.808 112.174,298.628 113.746 C 296.448 115.318,294.459 116.770,294.207 116.974 C 293.466 117.574,290.573 119.688,282.165 125.773 C 277.805 128.929,272.180 133.036,269.665 134.900 C 267.149 136.765,261.456 140.929,257.012 144.156 C 252.569 147.382,244.458 153.275,238.990 157.251 C 233.521 161.228,228.667 164.756,228.204 165.091 C 227.741 165.427,227.002 165.991,226.562 166.346 C 226.122 166.701,225.196 167.387,224.504 167.870 C 223.812 168.354,219.104 171.768,214.041 175.457 C 208.978 179.146,204.454 182.439,203.988 182.774 C 203.521 183.110,202.550 183.830,201.829 184.375 C 200.236 185.579,198.990 185.501,197.866 184.126 C 197.782 184.024,193.008 180.522,187.258 176.345 C 181.507 172.168,172.246 165.420,166.678 161.350 C 161.110 157.281,156.123 153.645,155.596 153.271 C 155.068 152.897,150.507 149.573,145.460 145.884 C 140.413 142.195,135.837 138.864,135.291 138.481 C 134.745 138.098,134.068 137.592,133.785 137.358 C 133.503 137.123,132.886 136.685,132.413 136.384 C 131.941 136.083,131.486 135.751,131.402 135.646 C 131.281 135.494,115.553 124.022,111.478 121.114 C 109.450 119.666,108.337 118.855,99.245 112.195 C 94.094 108.422,89.490 105.061,89.014 104.726 C 87.314 103.528,73.869 93.724,70.427 91.171 C 62.748 85.477,47.395 74.403,47.170 74.397 C 47.039 74.393,46.867 74.562,46.787 74.771 M345.573 79.510 C 339.238 84.108,336.077 86.432,335.213 87.127 C 334.820 87.443,317.525 100.008,316.661 100.605 C 316.126 100.975,314.212 102.401,312.652 103.591 C 312.485 103.719,310.385 105.243,307.987 106.977 C 305.588 108.711,303.695 110.200,303.780 110.284 C 303.865 110.369,304.157 110.216,304.428 109.945 C 304.699 109.673,305.023 109.451,305.147 109.451 C 305.271 109.451,305.671 109.173,306.035 108.834 C 306.400 108.494,309.959 105.858,313.944 102.976 C 317.929 100.094,321.326 97.625,321.494 97.491 C 321.662 97.356,322.891 96.474,324.226 95.531 C 325.561 94.588,326.840 93.630,327.068 93.402 C 327.296 93.174,327.584 92.988,327.708 92.988 C 327.832 92.988,328.203 92.737,328.531 92.431 C 328.860 92.125,332.418 89.498,336.439 86.594 C 340.460 83.689,343.819 81.230,343.902 81.129 C 343.986 81.028,344.775 80.465,345.655 79.878 C 346.535 79.291,347.255 78.708,347.256 78.582 C 347.256 78.457,347.428 78.351,347.637 78.348 C 347.847 78.345,348.566 77.864,349.234 77.281 C 349.903 76.697,350.534 76.220,350.635 76.220 C 350.737 76.220,351.215 75.880,351.698 75.465 C 352.181 75.050,352.682 74.816,352.812 74.946 C 352.942 75.076,353.083 126.692,353.125 189.649 L 353.202 304.116 353.202 189.355 C 353.201 113.110,353.099 74.564,352.896 74.505 C 352.729 74.457,349.433 76.709,345.573 79.510 " stroke="none" fill="#f4a29f" fill-rule="evenodd"></path><path id="path4" d="M30.190 0.554 C 30.193 0.669,30.968 1.311,31.911 1.982 C 32.855 2.652,33.778 3.348,33.963 3.526 C 34.459 4.007,36.180 5.047,35.823 4.651 C 35.277 4.045,30.183 0.340,30.190 0.554 M367.015 2.419 C 365.558 3.520,364.254 4.551,364.119 4.710 C 363.747 5.145,365.597 3.942,366.284 3.302 C 366.614 2.995,366.974 2.744,367.084 2.744 C 367.194 2.744,367.614 2.455,368.017 2.103 C 368.420 1.750,369.016 1.273,369.341 1.043 C 369.667 0.812,369.872 0.577,369.799 0.521 C 369.725 0.464,368.472 1.318,367.015 2.419 M37.344 5.918 C 38.013 6.520,38.646 7.012,38.751 7.012 C 38.856 7.012,39.406 7.422,39.974 7.922 C 40.542 8.422,41.143 8.829,41.311 8.826 C 41.696 8.818,40.373 7.732,37.982 6.094 C 36.144 4.835,36.139 4.833,37.344 5.918 M358.336 8.769 C 355.459 10.905,351.720 13.662,350.028 14.897 C 348.336 16.132,346.951 17.212,346.951 17.297 C 346.951 17.383,347.123 17.317,347.332 17.151 C 347.542 16.986,350.526 14.818,353.963 12.334 C 357.401 9.850,360.395 7.637,360.616 7.415 C 360.838 7.193,361.114 7.012,361.229 7.012 C 361.345 7.012,361.987 6.535,362.656 5.951 C 364.833 4.051,363.662 4.815,358.336 8.769 M41.773 9.047 C 41.776 9.185,43.590 10.602,45.804 12.195 C 51.737 16.464,53.236 17.510,52.896 17.144 C 52.555 16.777,49.680 14.582,48.010 13.415 C 46.600 12.429,43.679 10.285,42.607 9.449 C 42.146 9.089,41.771 8.908,41.773 9.047 M53.427 17.556 C 53.536 17.732,54.491 18.471,55.548 19.198 C 56.605 19.925,57.264 20.316,57.012 20.067 C 56.304 19.366,53.204 17.194,53.427 17.556 M344.231 19.059 C 341.700 20.911,341.205 21.344,341.631 21.336 C 341.790 21.332,342.468 20.852,343.137 20.269 C 343.806 19.685,344.439 19.207,344.544 19.207 C 344.649 19.207,345.199 18.798,345.767 18.298 C 347.314 16.934,346.760 17.208,344.231 19.059 M59.547 22.092 C 60.020 22.551,60.473 22.860,60.556 22.778 C 60.638 22.695,60.252 22.319,59.697 21.942 L 58.689 21.256 59.547 22.092 M338.872 22.935 C 337.698 23.799,336.557 24.686,336.335 24.906 C 336.113 25.125,335.837 25.305,335.722 25.305 C 335.606 25.305,334.964 25.799,334.295 26.403 C 333.012 27.561,335.739 25.818,337.348 24.451 C 337.683 24.166,338.367 23.669,338.867 23.346 C 339.806 22.740,341.420 21.333,341.155 21.352 C 341.073 21.358,340.046 22.070,338.872 22.935 M60.976 23.150 C 60.976 23.329,61.103 23.476,61.259 23.476 C 61.414 23.476,61.764 23.698,62.035 23.969 C 62.307 24.241,62.599 24.393,62.685 24.307 C 62.770 24.222,62.421 23.853,61.908 23.488 C 61.395 23.123,60.976 22.971,60.976 23.150 M63.116 24.624 C 63.120 24.747,63.699 25.259,64.403 25.762 C 65.108 26.265,66.443 27.219,67.370 27.882 C 68.296 28.545,68.869 28.857,68.642 28.575 C 68.103 27.905,63.108 24.334,63.116 24.624 M330.511 29.120 C 329.267 30.031,328.101 30.936,327.920 31.132 C 327.519 31.567,330.950 29.201,332.189 28.189 C 333.759 26.905,332.844 27.413,330.511 29.120 M69.945 29.685 C 71.131 30.692,74.390 32.984,74.390 32.811 C 74.390 32.736,73.670 32.152,72.790 31.515 C 71.909 30.877,71.120 30.279,71.037 30.186 C 70.953 30.093,70.473 29.772,69.970 29.473 L 69.055 28.930 69.945 29.685 M326.372 32.191 L 325.457 32.977 326.448 32.322 C 326.993 31.961,327.439 31.607,327.439 31.534 C 327.439 31.306,327.310 31.385,326.372 32.191 M74.769 33.105 C 74.868 33.266,75.603 33.866,76.400 34.439 C 77.198 35.012,77.769 35.349,77.670 35.188 C 77.571 35.027,76.836 34.427,76.039 33.854 C 75.241 33.281,74.670 32.944,74.769 33.105 M323.018 34.630 L 322.104 35.416 323.095 34.761 C 323.639 34.400,324.085 34.046,324.085 33.973 C 324.085 33.745,323.956 33.824,323.018 34.630 M78.051 35.574 C 78.052 35.711,78.463 36.057,78.965 36.343 C 80.140 37.011,80.139 36.813,78.963 35.976 C 78.460 35.617,78.050 35.437,78.051 35.574 M320.884 36.133 L 319.970 36.897 320.958 36.360 C 321.502 36.065,321.948 35.720,321.949 35.595 C 321.952 35.261,321.890 35.293,320.884 36.133 M318.203 38.017 C 317.400 38.613,316.824 39.182,316.924 39.282 C 317.024 39.382,317.202 39.330,317.318 39.165 C 317.435 39.001,318.044 38.525,318.672 38.107 C 319.299 37.689,319.814 37.245,319.815 37.119 C 319.818 36.812,319.864 36.787,318.203 38.017 M81.404 38.013 C 81.405 38.150,81.817 38.496,82.319 38.782 C 83.493 39.450,83.492 39.252,82.317 38.415 C 81.814 38.056,81.403 37.876,81.404 38.013 M83.546 39.537 C 83.559 39.872,85.063 40.954,85.252 40.764 C 85.334 40.682,84.981 40.317,84.469 39.952 C 83.956 39.586,83.541 39.400,83.546 39.537 M315.384 40.094 C 314.888 40.500,314.619 40.832,314.787 40.833 C 315.174 40.834,316.594 39.663,316.418 39.488 C 316.346 39.415,315.881 39.688,315.384 40.094 M85.679 41.079 C 85.690 41.408,90.570 44.898,90.757 44.711 C 90.842 44.626,90.384 44.210,89.739 43.786 C 89.095 43.362,87.915 42.528,87.119 41.932 C 86.322 41.336,85.674 40.952,85.679 41.079 M313.415 41.514 C 312.995 41.847,311.847 42.726,310.863 43.468 C 309.878 44.210,309.165 44.817,309.278 44.817 C 309.434 44.817,313.554 41.907,314.304 41.267 C 314.838 40.812,314.010 41.042,313.415 41.514 M92.506 46.148 C 93.692 47.156,96.951 49.447,96.951 49.274 C 96.951 49.199,96.231 48.616,95.351 47.978 C 94.470 47.341,93.681 46.743,93.598 46.649 C 93.514 46.556,93.034 46.235,92.530 45.936 L 91.616 45.393 92.506 46.148 M305.816 47.108 C 304.572 48.019,303.405 48.924,303.225 49.120 C 302.824 49.555,306.255 47.189,307.494 46.176 C 309.064 44.893,308.149 45.401,305.816 47.108 M97.256 49.506 C 97.256 49.582,97.976 50.165,98.857 50.802 C 99.737 51.440,100.526 52.038,100.610 52.131 C 100.694 52.224,101.174 52.545,101.677 52.844 L 102.591 53.388 101.702 52.632 C 100.515 51.625,97.256 49.333,97.256 49.506 M300.328 51.071 C 299.084 51.982,297.918 52.893,297.737 53.096 C 297.286 53.603,299.079 52.468,299.821 51.777 C 300.150 51.471,300.513 51.220,300.626 51.220 C 300.739 51.220,301.296 50.810,301.864 50.310 C 303.411 48.946,302.858 49.221,300.328 51.071 M103.200 53.943 C 103.535 54.324,104.174 54.824,104.620 55.055 C 105.065 55.285,105.615 55.657,105.840 55.882 C 106.066 56.107,106.662 56.536,107.165 56.836 L 108.079 57.381 107.189 56.610 C 105.653 55.281,102.554 53.208,103.200 53.943 M294.865 55.021 C 292.387 56.815,291.809 57.319,292.241 57.312 C 292.400 57.310,292.961 56.927,293.488 56.463 C 294.014 55.999,295.077 55.219,295.850 54.730 C 296.624 54.242,297.256 53.732,297.256 53.598 C 297.256 53.272,297.398 53.188,294.865 55.021 M108.239 57.520 C 108.246 57.754,110.393 59.359,114.628 62.295 C 115.554 62.936,115.899 63.099,115.396 62.658 C 114.893 62.216,113.864 61.426,113.110 60.902 C 112.355 60.378,111.669 59.867,111.585 59.766 C 111.173 59.272,108.233 57.298,108.239 57.520 M291.316 57.613 C 291.202 57.798,290.653 58.253,290.096 58.624 C 288.194 59.891,280.488 65.594,280.488 65.735 C 280.488 65.875,284.166 63.417,284.451 63.085 C 284.535 62.988,286.181 61.770,288.110 60.379 C 292.225 57.412,291.914 57.666,291.697 57.449 C 291.602 57.354,291.431 57.428,291.316 57.613 M116.463 63.526 C 116.463 63.609,116.875 63.971,117.378 64.329 C 117.881 64.687,118.293 64.912,118.293 64.828 C 118.293 64.744,117.881 64.383,117.378 64.024 C 116.875 63.666,116.463 63.442,116.463 63.526 M118.598 65.031 C 118.598 65.176,123.579 68.966,124.607 69.604 C 125.814 70.352,124.691 69.338,122.790 67.961 C 121.574 67.082,120.133 66.025,119.588 65.614 C 119.043 65.203,118.598 64.941,118.598 65.031 M277.768 67.535 C 275.237 69.387,274.742 69.820,275.168 69.811 C 275.327 69.808,276.005 69.328,276.673 68.744 C 277.342 68.160,277.975 67.683,278.080 67.683 C 278.185 67.683,278.736 67.274,279.303 66.773 C 280.851 65.409,280.297 65.684,277.768 67.535 M126.372 70.851 C 127.043 71.460,127.832 72.034,128.125 72.128 C 128.418 72.221,128.659 72.425,128.659 72.582 C 128.659 72.738,128.825 72.866,129.029 72.866 C 129.518 72.866,128.955 72.362,126.829 70.899 L 125.152 69.745 126.372 70.851 M271.646 71.963 C 270.053 73.132,268.519 74.285,268.237 74.524 C 267.954 74.764,267.337 75.208,266.865 75.511 C 266.392 75.814,265.663 76.396,265.244 76.804 C 264.825 77.213,264.688 77.406,264.939 77.234 C 266.041 76.479,271.203 72.720,271.341 72.572 C 271.425 72.482,272.214 71.928,273.094 71.341 C 273.974 70.755,274.694 70.171,274.695 70.046 C 274.695 69.715,274.797 69.651,271.646 71.963 M129.580 73.100 C 129.583 73.223,130.163 73.735,130.867 74.238 C 131.571 74.741,132.906 75.695,133.833 76.358 C 134.760 77.021,135.333 77.333,135.106 77.051 C 134.566 76.381,129.571 72.809,129.580 73.100 M46.228 74.470 C 45.963 75.458,46.058 297.494,46.325 300.762 C 46.448 302.271,46.605 251.873,46.674 188.767 C 46.743 125.660,46.711 73.973,46.605 73.907 C 46.498 73.841,46.328 74.094,46.228 74.470 M352.896 74.003 C 352.561 74.087,351.052 75.052,349.543 76.149 C 346.243 78.547,346.515 78.324,346.682 78.491 C 346.801 78.610,348.655 77.294,351.573 75.021 C 353.520 73.505,353.345 62.900,353.430 187.729 L 353.507 301.067 353.583 187.424 C 353.624 124.920,353.624 73.796,353.582 73.816 C 353.540 73.835,353.232 73.920,352.896 74.003 M49.128 75.526 C 51.762 77.483,53.038 78.354,53.270 78.354 C 53.557 78.354,47.759 74.114,47.451 74.098 C 47.307 74.091,48.062 74.734,49.128 75.526 M136.408 78.158 C 137.592 79.166,140.854 81.460,140.854 81.285 C 140.854 81.130,136.708 78.034,135.984 77.648 C 135.728 77.512,135.919 77.742,136.408 78.158 M262.957 78.378 C 261.149 79.745,260.905 80.131,262.601 78.942 C 263.882 78.044,264.580 77.420,264.271 77.448 C 264.219 77.452,263.628 77.871,262.957 78.378 M55.030 79.758 C 57.865 81.973,58.841 82.654,58.834 82.409 C 58.827 82.173,54.468 78.938,53.823 78.689 C 53.649 78.622,54.192 79.103,55.030 79.758 M344.055 80.087 C 343.049 80.847,341.959 81.657,341.634 81.887 C 341.309 82.116,341.103 82.362,341.177 82.434 C 341.296 82.550,345.442 79.651,346.174 78.940 C 346.983 78.153,345.676 78.861,344.055 80.087 M259.909 80.667 L 258.994 81.453 259.985 80.797 C 260.530 80.436,260.976 80.082,260.976 80.010 C 260.976 79.782,260.847 79.861,259.909 80.667 M141.896 82.121 C 142.386 82.538,143.620 83.448,144.640 84.142 C 145.660 84.837,146.093 85.064,145.604 84.647 C 145.114 84.230,143.880 83.320,142.860 82.626 C 141.840 81.931,141.407 81.704,141.896 82.121 M257.470 82.341 C 255.661 83.709,255.417 84.095,257.113 82.906 C 258.395 82.007,259.092 81.383,258.783 81.411 C 258.731 81.416,258.140 81.834,257.470 82.341 M59.897 83.382 C 60.393 83.787,60.858 84.060,60.931 83.988 C 61.106 83.812,59.686 82.642,59.299 82.643 C 59.131 82.644,59.400 82.976,59.897 83.382 M339.939 83.170 C 339.520 83.454,338.834 84.015,338.415 84.416 C 337.933 84.876,338.195 84.767,339.126 84.119 C 339.936 83.554,340.664 82.986,340.744 82.857 C 340.949 82.526,340.810 82.581,339.939 83.170 M254.421 84.609 L 253.506 85.373 254.495 84.836 C 255.039 84.540,255.485 84.196,255.486 84.070 C 255.489 83.737,255.426 83.768,254.421 84.609 M61.354 84.324 C 61.454 84.485,62.188 85.085,62.986 85.658 C 63.783 86.231,64.355 86.568,64.255 86.407 C 64.156 86.247,63.422 85.646,62.624 85.073 C 61.826 84.500,61.255 84.163,61.354 84.324 M336.433 85.850 L 335.518 86.636 336.509 85.980 C 337.054 85.619,337.500 85.265,337.500 85.193 C 337.500 84.964,337.371 85.044,336.433 85.850 M146.655 85.576 C 146.659 85.712,147.208 86.159,147.874 86.570 C 148.540 86.981,149.085 87.427,149.085 87.561 C 149.085 87.695,149.231 87.805,149.408 87.805 C 149.586 87.805,149.666 87.699,149.586 87.570 C 149.322 87.143,146.646 85.323,146.655 85.576 M251.829 86.468 C 251.075 87.051,249.930 87.875,249.285 88.298 C 248.641 88.722,248.186 89.141,248.274 89.230 C 248.406 89.361,250.333 88.098,250.915 87.499 C 250.998 87.413,251.581 87.000,252.208 86.583 C 252.836 86.165,253.350 85.720,253.352 85.595 C 253.354 85.283,253.378 85.270,251.829 86.468 M64.634 86.731 C 64.634 86.796,65.046 87.142,65.549 87.500 C 66.052 87.858,66.463 88.039,66.461 87.902 C 66.460 87.765,66.049 87.419,65.547 87.133 C 65.045 86.847,64.634 86.667,64.634 86.731 M333.994 87.524 C 332.185 88.892,331.942 89.278,333.638 88.089 C 334.919 87.190,335.617 86.566,335.308 86.594 C 335.256 86.599,334.665 87.017,333.994 87.524 M150.010 88.013 C 150.022 88.347,151.526 89.429,151.715 89.240 C 151.797 89.158,151.445 88.792,150.932 88.427 C 150.419 88.062,150.004 87.876,150.010 88.013 M66.842 88.288 C 66.942 88.449,67.676 89.049,68.473 89.622 C 69.271 90.195,69.843 90.532,69.743 90.371 C 69.644 90.210,68.910 89.610,68.112 89.037 C 67.314 88.464,66.743 88.127,66.842 88.288 M329.047 91.094 C 327.499 92.219,326.230 93.255,326.226 93.396 C 326.223 93.537,326.665 93.295,327.210 92.858 C 328.390 91.913,328.378 91.922,330.412 90.442 C 331.768 89.455,332.280 88.983,331.936 89.036 C 331.894 89.043,330.594 89.969,329.047 91.094 M152.150 89.522 C 152.171 89.861,157.015 93.392,157.202 93.204 C 157.280 93.127,156.617 92.544,155.729 91.910 C 154.842 91.276,153.670 90.419,153.125 90.007 C 152.580 89.594,152.141 89.376,152.150 89.522 M245.122 91.359 C 243.697 92.441,242.393 93.480,242.226 93.668 C 241.911 94.019,244.344 92.348,246.494 90.736 C 247.165 90.233,247.771 89.779,247.840 89.728 C 247.910 89.676,247.910 89.579,247.840 89.513 C 247.771 89.446,246.547 90.276,245.122 91.359 M70.122 90.658 C 70.122 90.737,70.842 91.323,71.723 91.961 C 72.603 92.598,73.392 93.194,73.476 93.284 C 73.965 93.812,75.914 95.113,75.908 94.909 C 75.905 94.775,75.325 94.253,74.621 93.750 C 73.917 93.247,72.616 92.313,71.731 91.675 C 70.846 91.037,70.122 90.580,70.122 90.658 M158.874 94.601 C 161.674 96.699,163.415 97.912,163.415 97.765 C 163.415 97.682,162.694 97.091,161.814 96.454 C 160.934 95.816,160.145 95.221,160.061 95.132 C 159.737 94.786,157.941 93.598,157.743 93.598 C 157.628 93.598,158.137 94.049,158.874 94.601 M324.728 94.225 C 324.327 94.559,324.058 94.891,324.130 94.964 C 324.203 95.036,324.668 94.763,325.164 94.357 C 325.661 93.951,325.930 93.619,325.762 93.619 C 325.595 93.618,325.129 93.891,324.728 94.225 M239.353 95.583 C 236.892 97.384,235.891 98.280,237.348 97.379 C 237.851 97.068,238.331 96.737,238.415 96.643 C 238.498 96.550,239.287 95.952,240.168 95.315 C 241.522 94.334,242.041 93.858,241.692 93.915 C 241.650 93.922,240.598 94.673,239.353 95.583 M76.220 95.245 C 76.220 95.341,76.734 95.758,77.363 96.171 C 77.992 96.585,79.158 97.411,79.954 98.007 C 80.751 98.603,81.400 98.987,81.397 98.860 C 81.389 98.449,76.220 94.840,76.220 95.245 M321.494 96.550 C 320.488 97.311,319.399 98.121,319.073 98.350 C 318.748 98.579,318.542 98.825,318.616 98.897 C 318.735 99.013,322.881 96.115,323.613 95.404 C 324.422 94.617,323.115 95.324,321.494 96.550 M164.457 98.585 C 164.946 99.002,166.181 99.911,167.201 100.606 C 168.221 101.300,168.654 101.528,168.165 101.110 C 167.675 100.693,166.441 99.784,165.421 99.089 C 164.401 98.395,163.968 98.168,164.457 98.585 M233.865 99.547 C 231.405 101.347,230.403 102.244,231.860 101.342 C 232.363 101.031,232.843 100.700,232.927 100.607 C 233.011 100.513,233.800 99.916,234.680 99.278 C 236.034 98.297,236.553 97.821,236.204 97.878 C 236.162 97.885,235.110 98.636,233.865 99.547 M82.458 99.845 C 82.954 100.251,83.434 100.501,83.525 100.402 C 83.615 100.303,83.515 100.159,83.302 100.083 C 83.090 100.008,82.722 99.752,82.486 99.515 C 82.249 99.279,81.943 99.090,81.805 99.096 C 81.668 99.102,81.961 99.439,82.458 99.845 M317.073 99.910 L 316.311 100.698 317.302 100.024 C 318.274 99.361,318.518 99.067,318.064 99.104 C 317.938 99.114,317.492 99.477,317.073 99.910 M83.935 100.820 C 84.206 101.258,86.891 103.103,86.874 102.839 C 86.865 102.703,86.164 102.134,85.316 101.576 C 84.468 101.017,83.847 100.677,83.935 100.820 M313.872 102.313 L 312.957 103.099 313.948 102.443 C 314.493 102.083,314.939 101.728,314.939 101.656 C 314.939 101.428,314.810 101.507,313.872 102.313 M169.664 102.419 C 169.999 102.800,170.638 103.300,171.083 103.530 C 171.529 103.761,172.078 104.133,172.303 104.358 C 172.529 104.582,173.125 105.012,173.628 105.311 L 174.543 105.856 173.653 105.086 C 172.117 103.756,169.017 101.684,169.664 102.419 M229.179 102.956 C 228.375 103.552,227.800 104.121,227.900 104.221 C 228.000 104.321,228.177 104.269,228.294 104.104 C 228.411 103.940,229.020 103.464,229.647 103.046 C 230.275 102.628,230.789 102.184,230.791 102.058 C 230.793 101.751,230.839 101.726,229.179 102.956 M87.195 103.160 C 87.195 103.244,87.607 103.605,88.110 103.963 C 88.613 104.322,89.024 104.546,89.024 104.462 C 89.024 104.378,88.613 104.017,88.110 103.659 C 87.607 103.300,87.195 103.076,87.195 103.160 M311.738 103.838 L 310.823 104.624 311.814 103.968 C 312.359 103.607,312.805 103.253,312.805 103.180 C 312.805 102.952,312.676 103.032,311.738 103.838 M226.372 105.056 C 225.869 105.460,225.595 105.786,225.762 105.781 C 226.139 105.770,227.571 104.602,227.406 104.440 C 227.340 104.376,226.875 104.653,226.372 105.056 M89.439 104.808 C 89.519 104.938,90.247 105.498,91.057 106.053 C 92.409 106.980,92.301 106.850,90.318 105.160 C 89.615 104.561,89.178 104.386,89.439 104.808 M309.299 105.512 C 307.490 106.880,307.247 107.265,308.943 106.076 C 310.224 105.178,310.921 104.554,310.613 104.582 C 310.561 104.586,309.970 105.005,309.299 105.512 M174.703 105.995 C 174.708 106.135,177.001 107.896,179.801 109.909 C 182.600 111.921,185.614 114.089,186.500 114.727 C 187.385 115.365,188.110 115.826,188.110 115.752 C 188.110 115.678,186.728 114.607,185.040 113.373 C 182.349 111.405,179.120 109.012,178.201 108.305 C 176.370 106.895,174.697 105.790,174.703 105.995 M224.853 106.089 C 224.739 106.274,224.189 106.729,223.632 107.100 C 221.542 108.493,214.024 114.077,214.024 114.237 C 214.024 114.329,214.196 114.269,214.405 114.105 C 214.615 113.941,217.119 112.120,219.970 110.060 C 226.056 105.661,225.447 106.138,225.234 105.925 C 225.139 105.830,224.967 105.904,224.853 106.089 M92.835 107.236 C 93.003 107.427,94.924 108.894,97.104 110.497 C 101.687 113.866,101.523 113.744,102.214 114.290 C 102.506 114.521,102.744 114.589,102.743 114.443 C 102.743 114.297,102.023 113.697,101.143 113.110 C 100.263 112.523,99.474 111.969,99.390 111.879 C 99.306 111.789,97.934 110.774,96.341 109.623 C 92.385 106.765,92.475 106.826,92.835 107.236 M305.488 108.264 C 304.566 108.937,303.755 109.649,303.686 109.845 C 303.617 110.042,303.798 109.965,304.089 109.674 C 304.379 109.384,304.711 109.146,304.827 109.146 C 304.943 109.146,305.584 108.669,306.253 108.085 C 307.861 106.682,307.557 106.753,305.488 108.264 M302.134 110.697 C 300.760 111.808,300.456 112.031,298.848 113.110 C 297.973 113.697,297.257 114.291,297.257 114.431 C 297.256 114.667,298.613 113.758,301.677 111.472 C 303.355 110.220,303.528 110.059,303.186 110.071 C 303.027 110.077,302.553 110.358,302.134 110.697 M211.304 116.010 C 210.059 116.921,208.893 117.832,208.713 118.035 C 208.261 118.542,210.055 117.407,210.797 116.716 C 211.126 116.410,211.488 116.159,211.602 116.159 C 211.715 116.159,212.272 115.749,212.840 115.249 C 214.387 113.885,213.833 114.160,211.304 116.010 M103.786 115.352 C 105.553 116.859,108.600 118.846,107.165 117.554 C 106.494 116.951,105.705 116.380,105.412 116.287 C 105.118 116.194,104.878 116.019,104.878 115.899 C 104.878 115.779,104.432 115.435,103.887 115.136 L 102.896 114.592 103.786 115.352 M296.028 115.150 C 295.614 115.434,295.206 115.749,295.122 115.851 C 295.038 115.952,293.495 117.104,291.692 118.410 C 289.889 119.717,288.415 120.858,288.415 120.947 C 288.415 121.036,288.861 120.776,289.405 120.370 C 289.950 119.963,291.871 118.563,293.674 117.258 C 296.545 115.180,297.209 114.634,296.867 114.634 C 296.820 114.634,296.443 114.866,296.028 115.150 M188.415 115.944 C 188.415 116.035,189.409 116.833,190.624 117.716 C 191.838 118.600,193.099 119.571,193.425 119.875 C 193.751 120.178,194.119 120.427,194.243 120.427 C 194.367 120.427,194.650 120.600,194.872 120.812 C 195.809 121.709,199.648 124.390,199.995 124.390 C 200.316 124.390,204.431 121.586,204.878 121.063 C 204.962 120.965,205.750 120.404,206.631 119.817 C 207.511 119.230,208.231 118.635,208.231 118.495 C 208.232 118.247,205.636 120.001,204.421 121.070 C 201.315 123.803,199.463 124.463,198.476 123.187 C 198.392 123.079,196.265 121.502,193.750 119.683 C 191.235 117.863,189.005 116.241,188.796 116.077 C 188.586 115.913,188.415 115.853,188.415 115.944 M109.274 119.316 C 110.599 120.446,113.996 122.750,113.099 121.912 C 112.673 121.514,111.439 120.597,110.355 119.874 C 109.271 119.150,108.785 118.899,109.274 119.316 M284.604 123.518 C 282.759 124.870,280.984 126.164,280.659 126.395 C 280.333 126.626,280.128 126.870,280.201 126.936 C 280.319 127.042,287.185 122.061,287.942 121.320 C 288.664 120.614,287.711 121.242,284.604 123.518 M114.024 122.671 C 114.024 122.749,114.745 123.338,115.625 123.979 C 117.659 125.459,117.647 125.449,118.826 126.394 C 119.371 126.831,119.814 127.073,119.811 126.933 C 119.807 126.792,119.228 126.265,118.523 125.762 C 117.819 125.259,116.519 124.326,115.634 123.687 C 114.749 123.049,114.024 122.592,114.024 122.671 M120.122 127.194 C 120.122 127.255,120.892 127.850,121.833 128.515 C 122.773 129.181,123.940 130.046,124.424 130.439 C 124.909 130.831,125.302 131.037,125.298 130.896 C 125.287 130.535,120.122 126.841,120.122 127.194 M278.955 127.655 C 278.540 127.942,278.054 128.319,277.873 128.494 C 277.693 128.668,276.904 129.216,276.120 129.710 C 275.336 130.205,274.695 130.724,274.695 130.864 C 274.695 131.116,277.426 129.285,279.141 127.884 C 280.174 127.039,280.056 126.894,278.955 127.655 M126.360 131.857 C 126.857 132.263,127.322 132.536,127.394 132.464 C 127.570 132.288,126.149 131.118,125.762 131.119 C 125.595 131.119,125.864 131.451,126.360 131.857 M273.467 131.613 C 273.053 131.897,272.645 132.210,272.561 132.309 C 272.477 132.409,271.688 133.011,270.808 133.649 C 269.928 134.286,269.207 134.870,269.207 134.945 C 269.207 135.103,272.339 132.921,273.653 131.847 C 274.684 131.004,274.569 130.859,273.467 131.613 M127.853 132.857 C 127.933 132.986,128.662 133.561,129.472 134.133 C 130.417 134.801,130.738 134.937,130.369 134.513 C 129.805 133.865,127.565 132.391,127.853 132.857 M131.835 135.783 C 133.022 136.790,136.280 139.081,136.280 138.908 C 136.280 138.833,135.560 138.250,134.680 137.612 C 133.800 136.975,133.011 136.377,132.927 136.284 C 132.843 136.190,132.363 135.869,131.860 135.571 L 130.945 135.027 131.835 135.783 M267.530 136.000 C 265.722 137.367,265.478 137.753,267.174 136.564 C 268.456 135.666,269.153 135.042,268.844 135.069 C 268.792 135.074,268.201 135.493,267.530 136.000 M264.482 138.289 L 263.567 139.075 264.558 138.419 C 265.103 138.058,265.549 137.704,265.549 137.632 C 265.549 137.403,265.420 137.483,264.482 138.289 M136.585 139.134 C 136.585 139.213,137.306 139.801,138.186 140.442 C 140.220 141.922,140.208 141.913,141.387 142.858 C 141.932 143.295,142.375 143.537,142.372 143.396 C 142.368 143.255,141.789 142.729,141.084 142.226 C 140.380 141.723,139.080 140.789,138.195 140.151 C 137.309 139.513,136.585 139.055,136.585 139.134 M260.976 140.736 C 259.718 141.664,258.423 142.616,258.098 142.851 C 257.772 143.086,257.567 143.336,257.640 143.406 C 257.772 143.531,260.846 141.323,262.652 139.807 C 264.199 138.509,263.380 138.963,260.976 140.736 M142.683 143.721 C 142.683 143.816,143.197 144.233,143.826 144.647 C 144.455 145.060,145.621 145.887,146.418 146.483 C 147.214 147.079,147.864 147.463,147.861 147.335 C 147.852 146.924,142.683 143.316,142.683 143.721 M256.131 144.225 C 255.730 144.559,255.461 144.891,255.533 144.964 C 255.605 145.036,256.070 144.763,256.567 144.357 C 257.063 143.951,257.332 143.619,257.165 143.619 C 256.997 143.618,256.532 143.891,256.131 144.225 M253.588 146.132 C 252.794 146.667,252.143 147.215,252.140 147.351 C 252.134 147.604,254.809 145.786,255.074 145.357 C 255.291 145.006,255.159 145.074,253.588 146.132 M148.921 148.321 C 149.418 148.726,149.898 148.977,149.988 148.878 C 150.078 148.778,149.978 148.635,149.766 148.559 C 149.553 148.483,149.186 148.228,148.949 147.991 C 148.713 147.755,148.406 147.566,148.269 147.572 C 148.131 147.578,148.425 147.915,148.921 148.321 M251.008 147.999 C 250.808 148.227,250.465 148.477,250.246 148.555 C 250.027 148.633,249.922 148.778,250.012 148.878 C 250.102 148.977,250.582 148.726,251.079 148.321 C 251.575 147.915,251.845 147.583,251.677 147.584 C 251.509 147.584,251.208 147.771,251.008 147.999 M150.305 149.217 C 150.305 149.289,150.751 149.652,151.296 150.022 L 152.287 150.695 151.461 149.890 C 150.687 149.134,150.305 148.912,150.305 149.217 M248.323 150.024 C 246.514 151.392,246.271 151.778,247.967 150.589 C 249.248 149.690,249.946 149.066,249.637 149.094 C 249.585 149.099,248.994 149.517,248.323 150.024 M153.659 151.635 C 153.659 151.719,154.070 152.081,154.573 152.439 C 155.076 152.797,155.488 153.022,155.488 152.938 C 155.488 152.854,155.076 152.492,154.573 152.134 C 154.070 151.776,153.659 151.551,153.659 151.635 M243.926 153.205 C 242.681 154.116,241.515 155.022,241.335 155.218 C 240.934 155.653,244.365 153.287,245.604 152.274 C 247.174 150.990,246.259 151.498,243.926 153.205 M155.867 153.227 C 155.966 153.388,156.700 153.988,157.498 154.561 C 158.296 155.134,158.867 155.471,158.768 155.310 C 158.668 155.149,157.934 154.549,157.136 153.976 C 156.339 153.403,155.767 153.066,155.867 153.227 M159.146 155.599 C 159.146 155.683,159.558 156.044,160.061 156.402 C 160.564 156.761,160.976 156.985,160.976 156.901 C 160.976 156.817,160.564 156.456,160.061 156.098 C 159.558 155.739,159.146 155.515,159.146 155.599 M237.888 157.557 C 236.341 158.683,235.072 159.714,235.068 159.848 C 235.061 160.089,236.793 158.884,237.938 157.851 C 238.264 157.557,238.622 157.317,238.736 157.317 C 238.849 157.317,239.406 156.908,239.974 156.407 C 241.598 154.976,240.934 155.342,237.888 157.557 M162.195 157.906 C 163.325 158.912,164.514 159.692,164.239 159.246 C 164.148 159.100,163.412 158.525,162.601 157.968 L 161.128 156.956 162.195 157.906 M164.996 159.916 C 165.658 160.698,169.208 163.206,169.207 162.892 C 169.206 162.760,168.486 162.172,167.606 161.585 C 166.726 160.998,165.938 160.450,165.854 160.366 C 165.184 159.696,164.510 159.343,164.996 159.916 M233.935 160.499 C 233.734 160.727,233.391 160.977,233.172 161.055 C 232.954 161.133,232.848 161.278,232.939 161.378 C 233.029 161.477,233.509 161.226,234.006 160.821 C 234.502 160.415,234.771 160.083,234.604 160.084 C 234.436 160.084,234.135 160.271,233.935 160.499 M231.407 162.342 C 231.016 162.759,230.444 163.179,230.135 163.278 C 229.826 163.376,229.573 163.592,229.573 163.759 C 229.573 164.049,232.210 162.310,232.513 161.821 C 232.851 161.273,232.061 161.646,231.407 162.342 M170.250 163.827 C 172.016 165.335,175.063 167.322,173.628 166.030 C 172.957 165.426,172.168 164.856,171.875 164.763 C 171.582 164.669,171.341 164.495,171.341 164.374 C 171.341 164.254,170.896 163.911,170.351 163.612 L 169.360 163.068 170.250 163.827 M228.659 164.264 C 228.659 164.395,228.213 164.765,227.668 165.085 C 227.123 165.405,226.521 165.820,226.331 166.008 C 226.141 166.195,223.230 168.330,219.861 170.751 C 216.493 173.172,213.733 175.279,213.728 175.434 C 213.723 175.589,214.028 175.444,214.405 175.111 C 214.783 174.778,215.387 174.308,215.749 174.067 C 220.458 170.925,229.538 164.024,228.963 164.024 C 228.796 164.024,228.659 164.132,228.659 164.264 M175.000 167.170 C 175.000 167.314,184.367 174.242,186.386 175.591 C 186.747 175.833,187.351 176.302,187.729 176.635 C 188.106 176.968,188.411 177.114,188.406 176.959 C 188.400 176.739,182.440 172.303,175.587 167.417 C 175.264 167.187,175.000 167.076,175.000 167.170 M212.492 176.126 C 212.077 176.409,211.669 176.725,211.585 176.828 C 211.502 176.930,210.944 177.311,210.346 177.674 C 209.748 178.037,208.993 178.636,208.669 179.005 C 208.091 179.663,210.924 177.793,212.677 176.359 C 213.709 175.516,213.594 175.371,212.492 176.126 M188.782 177.293 C 189.077 177.771,191.770 179.644,191.759 179.363 C 191.749 179.113,191.144 178.633,189.493 177.566 C 188.997 177.244,188.677 177.122,188.782 177.293 M192.073 179.688 C 192.073 179.770,192.485 180.130,192.988 180.488 C 193.491 180.846,193.902 181.022,193.902 180.879 C 193.902 180.736,193.491 180.376,192.988 180.079 C 192.485 179.782,192.073 179.606,192.073 179.688 M207.004 180.096 C 206.589 180.384,205.984 180.864,205.659 181.163 C 205.334 181.462,204.975 181.707,204.862 181.707 C 204.749 181.707,204.191 182.132,203.624 182.651 C 202.498 183.679,205.405 181.781,207.189 180.323 C 208.223 179.478,208.104 179.333,207.004 180.096 M194.316 181.332 C 194.396 181.462,195.125 182.036,195.935 182.609 C 196.880 183.277,197.202 183.413,196.832 182.988 C 196.268 182.341,194.029 180.867,194.316 181.332 M198.476 184.436 C 199.814 185.582,200.199 185.578,201.524 184.405 L 202.591 183.461 201.469 184.261 C 200.385 185.033,199.392 185.306,199.388 184.832 C 199.387 184.707,198.941 184.361,198.397 184.063 L 197.409 183.523 198.476 184.436 " stroke="none" fill="#f4847c" fill-rule="evenodd"></path></g></svg>